<svg width="21" height="17" viewBox="0 0 21 17" fill="none" xmlns="http://www.w3.org/2000/svg">
<path d="M18.5 14.7324H16.5V5.98242L10.5 9.73242L4.5 5.98242V14.7324H2.5V2.73242H3.7L10.5 6.98242L17.3 2.73242H18.5M18.5 0.732422H2.5C1.39 0.732422 0.5 1.62242 0.5 2.73242V14.7324C0.5 15.2629 0.710714 15.7716 1.08579 16.1466C1.46086 16.5217 1.96957 16.7324 2.5 16.7324H18.5C19.0304 16.7324 19.5391 16.5217 19.9142 16.1466C20.2893 15.7716 20.5 15.2629 20.5 14.7324V2.73242C20.5 2.20199 20.2893 1.69328 19.9142 1.31821C19.5391 0.943135 19.0304 0.732422 18.5 0.732422Z" fill="white"/>
</svg>
