<svg width="25" height="25" viewBox="0 0 25 25" fill="none" xmlns="http://www.w3.org/2000/svg">
<path d="M12.5 0C13.62 0 14.705 0.1475 15.7375 0.42375L13.08 3.08C12.8784 3.28242 12.7006 3.50721 12.55 3.75H12.5C10.7694 3.75 9.07769 4.26318 7.63876 5.22464C6.19983 6.1861 5.07832 7.55267 4.41605 9.15152C3.75379 10.7504 3.58051 12.5097 3.91813 14.207C4.25575 15.9044 5.08911 17.4635 6.31282 18.6872C7.53652 19.9109 9.09563 20.7443 10.793 21.0819C12.4903 21.4195 14.2496 21.2462 15.8485 20.5839C17.4473 19.9217 18.8139 18.8002 19.7754 17.3612C20.7368 15.9223 21.25 14.2306 21.25 12.5V12.45C21.49 12.3 21.715 12.1237 21.9188 11.9187L24.5762 9.2625C24.8525 10.295 25 11.38 25 12.5C25 19.4037 19.4037 25 12.5 25C5.59625 25 0 19.4037 0 12.5C0 5.59625 5.59625 0 12.5 0ZM11.9825 6.27125C11.9825 7.335 11.93 8.41375 11.9875 9.47625L11.3125 10.1513C11.0803 10.3834 10.8961 10.6591 10.7705 10.9625C10.6448 11.2658 10.5801 11.591 10.5801 11.9194C10.5801 12.2477 10.6448 12.5729 10.7705 12.8763C10.8961 13.1797 11.0803 13.4553 11.3125 13.6875C11.5447 13.9197 11.8203 14.1039 12.1237 14.2295C12.4271 14.3552 12.7523 14.4199 13.0806 14.4199C13.409 14.4199 13.7342 14.3552 14.0375 14.2295C14.3409 14.1039 14.6166 13.9197 14.8487 13.6875L15.5237 13.0125C16.5863 13.07 17.6637 13.0175 18.7288 13.0175C18.63 14.2054 18.1936 15.3403 17.471 16.2884C16.7485 17.2364 15.7698 17.9581 14.6506 18.3682C13.5313 18.7783 12.3181 18.8598 11.1541 18.6031C9.99005 18.3463 8.9237 17.7621 8.08081 16.9192C7.23793 16.0763 6.65366 15.0099 6.39692 13.8459C6.14018 12.6819 6.22168 11.4687 6.6318 10.3494C7.04192 9.23017 7.76356 8.25155 8.71161 7.52897C9.65966 6.80639 10.7946 6.36999 11.9825 6.27125ZM20.63 0.15875C20.8582 0.253349 21.0532 0.413421 21.1904 0.618762C21.3277 0.824102 21.4011 1.06551 21.4013 1.3125V3.6H23.6875C23.9347 3.60005 24.1763 3.67339 24.3818 3.81075C24.5873 3.9481 24.7475 4.14331 24.8421 4.37168C24.9367 4.60006 24.9614 4.85135 24.9132 5.09379C24.865 5.33623 24.746 5.55894 24.5712 5.73375L20.15 10.15C19.9156 10.3844 19.5977 10.5162 19.2663 10.5163H16.25L13.965 12.8025C13.7304 13.0371 13.4123 13.1688 13.0806 13.1688C12.7489 13.1688 12.4308 13.0371 12.1962 12.8025C11.9617 12.5679 11.8299 12.2498 11.8299 11.9181C11.8299 11.5864 11.9617 11.2683 12.1962 11.0337L14.4825 8.75V5.7325C14.4824 5.56815 14.5147 5.40539 14.5775 5.25353C14.6403 5.10167 14.7325 4.9637 14.8487 4.8475L19.2675 0.42875C19.4423 0.253834 19.6651 0.134698 19.9076 0.0864142C20.1501 0.0381305 20.4015 0.0628689 20.63 0.1575" fill="white"/>
</svg>
