<svg width="21" height="21" viewBox="0 0 21 21" fill="none" xmlns="http://www.w3.org/2000/svg">
<path d="M11.5286 0.732422C12.6536 0.735422 13.2246 0.741422 13.7176 0.755422L13.9116 0.762422C14.1356 0.770422 14.3566 0.780422 14.6236 0.792422C15.6876 0.842422 16.4136 1.01042 17.0506 1.25742C17.7106 1.51142 18.2666 1.85542 18.8226 2.41042C19.3311 2.91032 19.7245 3.51501 19.9756 4.18242C20.2226 4.81942 20.3906 5.54542 20.4406 6.61042C20.4526 6.87642 20.4626 7.09742 20.4706 7.32242L20.4766 7.51642C20.4916 8.00842 20.4976 8.57942 20.4996 9.70442L20.5006 10.4504V11.7604C20.503 12.4898 20.4954 13.2192 20.4776 13.9484L20.4716 14.1424C20.4636 14.3674 20.4536 14.5884 20.4416 14.8544C20.3916 15.9194 20.2216 16.6444 19.9756 17.2824C19.7253 17.9502 19.3317 18.555 18.8226 19.0544C18.3225 19.5627 17.7179 19.9562 17.0506 20.2074C16.4136 20.4544 15.6876 20.6224 14.6236 20.6724C14.3863 20.6836 14.149 20.6936 13.9116 20.7024L13.7176 20.7084C13.2246 20.7224 12.6536 20.7294 11.5286 20.7314L10.7826 20.7324H9.47358C8.74384 20.7349 8.0141 20.7273 7.28458 20.7094L7.09058 20.7034C6.85319 20.6944 6.61585 20.6841 6.37858 20.6724C5.31458 20.6224 4.58858 20.4544 3.95058 20.2074C3.28325 19.9568 2.67879 19.5633 2.17958 19.0544C1.67062 18.5547 1.2768 17.95 1.02558 17.2824C0.778577 16.6454 0.610577 15.9194 0.560577 14.8544C0.549436 14.6171 0.539436 14.3798 0.530577 14.1424L0.525577 13.9484C0.507149 13.2192 0.498815 12.4898 0.500577 11.7604V9.70442C0.497786 8.97502 0.50512 8.24562 0.522577 7.51642L0.529577 7.32242C0.537577 7.09742 0.547577 6.87642 0.559577 6.61042C0.609577 5.54542 0.777577 4.82042 1.02458 4.18242C1.27569 3.51433 1.6703 2.90945 2.18058 2.41042C2.67967 1.9019 3.28372 1.50841 3.95058 1.25742C4.58858 1.01042 5.31358 0.842422 6.37858 0.792422C6.64458 0.780422 6.86658 0.770422 7.09058 0.762422L7.28458 0.756422C8.01377 0.738655 8.74317 0.730987 9.47258 0.733422L11.5286 0.732422ZM10.5006 5.73242C9.17449 5.73242 7.90273 6.25921 6.96504 7.19689C6.02736 8.13457 5.50058 9.40634 5.50058 10.7324C5.50058 12.0585 6.02736 13.3303 6.96504 14.268C7.90273 15.2056 9.17449 15.7324 10.5006 15.7324C11.8267 15.7324 13.0984 15.2056 14.0361 14.268C14.9738 13.3303 15.5006 12.0585 15.5006 10.7324C15.5006 9.40634 14.9738 8.13457 14.0361 7.19689C13.0984 6.25921 11.8267 5.73242 10.5006 5.73242ZM10.5006 7.73242C10.8945 7.73236 11.2847 7.80989 11.6487 7.96059C12.0127 8.1113 12.3434 8.33222 12.622 8.61075C12.9007 8.88928 13.1217 9.21996 13.2725 9.58391C13.4233 9.94786 13.501 10.338 13.5011 10.7319C13.5011 11.1259 13.4236 11.516 13.2729 11.88C13.1222 12.244 12.9013 12.5748 12.6228 12.8534C12.3442 13.132 12.0135 13.353 11.6496 13.5039C11.2856 13.6547 10.8955 13.7324 10.5016 13.7324C9.70593 13.7324 8.94287 13.4164 8.38026 12.8537C7.81765 12.2911 7.50158 11.5281 7.50158 10.7324C7.50158 9.93677 7.81765 9.17371 8.38026 8.6111C8.94287 8.04849 9.70593 7.73242 10.5016 7.73242M15.7516 4.23242C15.4201 4.23242 15.1021 4.36412 14.8677 4.59854C14.6333 4.83296 14.5016 5.1509 14.5016 5.48242C14.5016 5.81394 14.6333 6.13189 14.8677 6.36631C15.1021 6.60073 15.4201 6.73242 15.7516 6.73242C16.0831 6.73242 16.401 6.60073 16.6355 6.36631C16.8699 6.13189 17.0016 5.81394 17.0016 5.48242C17.0016 5.1509 16.8699 4.83296 16.6355 4.59854C16.401 4.36412 16.0831 4.23242 15.7516 4.23242Z" fill="white"/>
</svg>
